<?xml version="1.0" encoding="UTF-8" standalone="no"?>
<!DOCTYPE svg PUBLIC "-//W3C//DTD SVG 1.1//EN" "http://www.w3.org/Graphics/SVG/1.1/DTD/svg11.dtd">
<svg xmlns="http://www.w3.org/2000/svg" version="1.1" viewBox="0.00 0.00 280.00 180.00">
<g stroke-width="2.00" fill="none" stroke-linecap="butt">
<path stroke="#8499ae" vector-effect="non-scaling-stroke" d="
  M 92.54 95.78
  L 92.54 107.18
  A 1.36 1.34 11.0 0 0 93.40 108.43
  Q 103.57 112.45 114.30 110.77
  C 123.10 109.40 129.63 103.78 129.81 94.46
  C 130.03 83.06 120.54 79.85 111.73 75.78
  C 109.93 74.95 106.51 72.95 107.17 70.54
  C 108.80 64.64 121.68 69.42 125.12 71.03
  A 0.33 0.32 -66.3 0 0 125.57 70.85
  L 129.49 60.83
  A 0.93 0.93 0.0 0 0 128.98 59.63
  Q 121.96 56.72 115.21 56.25
  C 105.74 55.59 94.13 58.76 92.95 69.47
  Q 91.60 81.67 102.64 86.89
  Q 111.38 91.03 112.93 91.98
  C 115.92 93.82 116.45 97.25 113.08 98.87
  C 108.17 101.22 97.89 97.76 93.20 95.38
  A 0.46 0.45 13.4 0 0 92.54 95.78"
/>
<path stroke="#8499ae" vector-effect="non-scaling-stroke" d="
  M 159.41 100.91
  Q 167.16 100.89 167.67 100.93
  A 0.75 0.74 -4.7 0 1 168.34 101.49
  L 170.69 110.48
  A 0.70 0.69 -7.7 0 0 171.36 110.99
  L 186.17 110.99
  A 0.34 0.34 0.0 0 0 186.49 110.54
  L 169.08 57.45
  A 0.69 0.69 0.0 0 0 168.44 56.97
  Q 163.92 56.83 159.32 56.84
  Q 154.72 56.84 150.20 57.01
  A 0.69 0.69 0.0 0 0 149.56 57.49
  L 132.37 110.65
  A 0.34 0.34 0.0 0 0 132.69 111.10
  L 147.50 111.04
  A 0.70 0.69 7.4 0 0 148.17 110.53
  L 150.48 101.53
  A 0.75 0.74 4.5 0 1 151.15 100.96
  Q 151.66 100.92 159.41 100.91"
/>
<path stroke="#808489" vector-effect="non-scaling-stroke" d="
  M 51.09 100.22
  L 51.01 110.49
  A 0.52 0.52 0.0 0 0 51.53 111.01
  L 85.53 111.01
  A 0.53 0.52 90.0 0 0 86.05 110.48
  L 86.10 102.96"
/>
<path stroke="#8499ae" vector-effect="non-scaling-stroke" d="
  M 86.10 102.96
  L 86.07 99.85
  A 0.56 0.56 0.0 0 0 85.51 99.29
  L 65.92 99.29
  A 0.44 0.44 0.0 0 1 65.48 98.85
  L 65.48 57.91
  A 0.59 0.59 0.0 0 0 64.89 57.32
  L 51.43 57.32
  A 0.46 0.46 0.0 0 0 50.97 57.78
  L 51.09 100.22"
/>
<path stroke="#051e38" vector-effect="non-scaling-stroke" d="
  M 86.10 102.96
  Q 85.96 102.79 85.79 102.83
  Q 85.23 102.98 85.23 103.67
  Q 85.22 106.99 85.23 109.39
  A 0.48 0.48 0.0 0 1 84.75 109.87
  L 53.14 109.87
  A 0.82 0.82 0.0 0 1 52.32 109.01
  Q 52.56 104.64 51.09 100.22"
/>
<path stroke="#808489" vector-effect="non-scaling-stroke" d="
  M 201.06 79.23
  L 200.95 110.65
  A 0.34 0.34 0.0 0 0 201.29 110.99
  L 214.86 110.99
  A 0.40 0.40 0.0 0 0 215.26 110.59
  L 215.02 89.55"
/>
<path stroke="#8499ae" vector-effect="non-scaling-stroke" d="
  M 215.02 89.55
  L 215.20 69.67
  A 0.59 0.59 0.0 0 1 215.79 69.08
  L 227.85 69.08
  A 0.54 0.54 0.0 0 0 228.39 68.54
  L 228.39 57.88
  A 0.54 0.53 90.0 0 0 227.86 57.34
  L 188.51 57.34
  A 0.65 0.64 90.0 0 0 187.87 57.99
  L 187.87 68.57
  A 0.50 0.50 0.0 0 0 188.37 69.07
  L 200.15 69.07
  A 0.81 0.80 -0.4 0 1 200.96 69.86
  L 201.06 79.23"
/>
<path stroke="#051e38" vector-effect="non-scaling-stroke" d="
  M 215.02 89.55
  Q 213.77 99.29 214.10 108.70
  A 0.97 0.97 0.0 0 1 213.13 109.71
  L 203.20 109.71
  A 0.67 0.67 0.0 0 1 202.53 109.07
  L 201.06 79.23"
/>
<path stroke="#808489" vector-effect="non-scaling-stroke" d="
  M 96.98 123.00
  L 96.98 119.24
  A 1.16 1.16 0.0 0 1 98.14 118.08
  L 98.88 118.08
  A 0.91 0.91 0.0 0 1 99.79 118.99
  L 99.79 122.96
  A 0.67 0.67 0.0 0 0 100.46 123.63
  L 101.19 123.63
  A 0.69 0.69 0.0 0 0 101.88 122.93
  C 101.83 120.05 102.35 114.88 97.34 117.07
  A 0.29 0.29 0.0 0 1 96.93 116.80
  L 96.93 114.51
  A 0.65 0.65 0.0 0 0 96.28 113.86
  L 95.93 113.86
  A 0.61 0.61 0.0 0 0 95.32 114.47
  L 95.32 123.24
  A 0.53 0.52 -90.0 0 0 95.84 123.77
  L 96.21 123.77
  A 0.77 0.77 0.0 0 0 96.98 123.00"
/>
<path stroke="#808489" vector-effect="non-scaling-stroke" d="
  M 140.93 117.06
  C 136.76 115.49 135.91 119.33 137.08 122.24
  A 2.22 1.97 66.5 0 0 139.85 123.53
  Q 141.09 122.94 142.58 123.60
  A 0.44 0.44 0.0 0 0 143.21 123.20
  L 143.21 114.53
  A 0.64 0.64 0.0 0 0 142.57 113.89
  L 141.88 113.89
  A 0.36 0.35 -0.0 0 0 141.52 114.24
  L 141.52 116.64
  A 0.44 0.44 0.0 0 1 140.93 117.06"
/>
<path stroke="#808489" vector-effect="non-scaling-stroke" d="
  M 122.1002 114.4865
  A 0.55 0.55 0.0 0 0 121.5541 113.9326
  L 120.8341 113.9276
  A 0.55 0.55 0.0 0 0 120.2803 114.4738
  L 120.2198 123.1335
  A 0.55 0.55 0.0 0 0 120.7659 123.6874
  L 121.4859 123.6924
  A 0.55 0.55 0.0 0 0 122.0397 123.1462
  L 122.1002 114.4865"
/>
<path stroke="#808489" vector-effect="non-scaling-stroke" d="
  M 160.1331 114.2729
  A 0.96 0.84 -29.8 0 0 158.8825 114.0211
  A 0.96 0.84 -29.8 0 0 158.4669 115.2271
  A 0.96 0.84 -29.8 0 0 159.7175 115.4789
  A 0.96 0.84 -29.8 0 0 160.1331 114.2729"
/>
<path stroke="#808489" vector-effect="non-scaling-stroke" d="
  M 175.6703 114.7046
  A 0.97 0.82 -178.5 0 0 176.6185 115.5497
  A 0.97 0.82 -178.5 0 0 177.6097 114.7554
  A 0.97 0.82 -178.5 0 0 176.6615 113.9103
  A 0.97 0.82 -178.5 0 0 175.6703 114.7046"
/>
<path stroke="#808489" vector-effect="non-scaling-stroke" d="
  M 56.29 123.56
  A 0.30 0.30 0.0 0 0 56.59 123.26
  L 56.59 122.47
  A 0.30 0.30 0.0 0 0 56.29 122.17
  L 52.74 122.17
  A 0.30 0.30 0.0 0 1 52.44 121.87
  L 52.44 114.84
  A 0.30 0.30 0.0 0 0 52.14 114.54
  L 51.17 114.54
  A 0.30 0.30 0.0 0 0 50.87 114.84
  L 50.87 123.26
  A 0.30 0.30 0.0 0 0 51.17 123.56
  L 56.29 123.56"
/>
<path stroke="#808489" vector-effect="non-scaling-stroke" d="
  M 80.50 122.44
  A 0.89 0.89 0.0 0 0 81.11 123.41
  Q 83.40 124.15 85.57 123.07
  A 1.52 1.50 88.5 0 0 86.30 122.29
  Q 86.71 121.24 86.04 119.76
  A 1.33 1.33 0.0 0 0 85.46 119.12
  L 82.70 117.52
  A 0.77 0.76 -42.2 0 1 82.77 116.16
  Q 83.91 115.64 85.72 116.17
  A 0.41 0.41 0.0 0 0 86.19 115.98
  L 86.35 115.71
  A 0.57 0.57 0.0 0 0 86.08 114.90
  C 83.82 113.97 79.92 114.28 80.85 117.84
  A 1.38 1.36 -83.0 0 0 81.49 118.67
  L 84.40 120.36
  A 0.98 0.97 50.6 0 1 84.23 122.13
  Q 82.80 122.61 81.27 121.79
  A 0.50 0.50 0.0 0 0 80.54 122.16
  L 80.50 122.44"
/>
<path stroke="#808489" vector-effect="non-scaling-stroke" d="
  M 131.34 121.34
  Q 132.70 121.35 132.72 121.35
  A 0.88 0.88 0.0 0 1 133.43 122.09
  Q 133.64 123.47 134.67 123.78
  A 0.61 0.61 0.0 0 0 135.43 123.01
  L 132.86 115.18
  A 0.86 0.86 0.0 0 0 132.11 114.59
  Q 131.91 114.57 131.37 114.57
  Q 130.84 114.57 130.64 114.58
  A 0.86 0.86 0.0 0 0 129.88 115.17
  L 127.23 122.97
  A 0.61 0.61 0.0 0 0 127.98 123.75
  Q 129.02 123.45 129.24 122.07
  A 0.88 0.88 0.0 0 1 129.96 121.34
  Q 129.98 121.34 131.34 121.34"
/>
<path stroke="#808489" vector-effect="non-scaling-stroke" d="
  M 202.85 123.79
  Q 203.67 123.79 203.67 122.92
  Q 203.71 118.53 203.59 116.63
  A 0.62 0.61 -2.1 0 1 204.21 115.97
  L 205.98 115.97
  A 0.53 0.53 0.0 0 0 206.51 115.44
  L 206.51 115.05
  A 0.46 0.46 0.0 0 0 206.02 114.59
  Q 204.50 114.67 202.85 114.57
  Q 201.21 114.67 199.69 114.59
  A 0.46 0.46 0.0 0 0 199.20 115.05
  L 199.20 115.44
  A 0.53 0.53 0.0 0 0 199.73 115.97
  L 201.50 115.97
  A 0.62 0.61 2.1 0 1 202.12 116.63
  Q 202.00 118.53 202.04 122.92
  Q 202.04 123.79 202.85 123.79"
/>
<path stroke="#808489" vector-effect="non-scaling-stroke" d="
  M 224.13 116.19
  Q 224.21 116.03 224.19 115.58
  A 0.59 0.58 -38.8 0 0 223.04 115.46
  Q 222.77 116.41 221.79 117.09
  A 0.45 0.44 51.3 0 0 221.72 117.76
  Q 221.92 117.99 222.25 117.98
  A 0.39 0.39 0.0 0 1 222.65 118.37
  L 222.65 122.47
  A 0.92 0.92 0.0 0 0 223.17 123.30
  Q 224.36 123.87 225.96 123.64
  A 0.53 0.52 86.3 0 0 226.41 123.12
  L 226.41 122.79
  A 0.48 0.47 0.0 0 0 225.93 122.32
  L 224.69 122.32
  A 0.57 0.57 0.0 0 1 224.12 121.75
  L 224.12 118.47
  A 0.40 0.40 0.0 0 1 224.55 118.07
  Q 225.23 118.11 226.00 117.84
  A 0.53 0.53 0.0 0 0 225.98 116.83
  Q 225.13 116.58 224.52 116.71
  A 0.36 0.36 0.0 0 1 224.13 116.19"
/>
<path stroke="#808489" vector-effect="non-scaling-stroke" d="
  M 63.76 118.18
  A 1.52 1.52 0.0 0 0 62.24 116.66
  L 59.17 116.66
  A 0.63 0.63 0.0 0 0 58.54 117.29
  L 58.54 117.63
  A 0.45 0.45 0.0 0 0 58.99 118.08
  L 61.81 118.08
  A 0.37 0.37 0.0 0 1 62.18 118.45
  L 62.18 118.77
  A 0.59 0.59 0.0 0 1 61.59 119.36
  Q 59.96 119.38 58.76 119.81
  A 2.20 1.89 57.6 0 0 58.27 123.18
  C 59.57 124.63 61.51 122.64 62.93 123.46
  A 0.55 0.55 0.0 0 0 63.76 122.98
  L 63.76 118.18"
/>
<path stroke="#808489" vector-effect="non-scaling-stroke" d="
  M 70.74 118.45
  Q 71.28 118.45 71.92 122.71
  A 1.10 1.10 0.0 0 0 74.03 122.95
  L 76.14 117.54
  A 0.63 0.63 0.0 0 0 75.78 116.72
  L 75.37 116.56
  A 0.83 0.83 0.0 0 0 74.26 117.15
  L 73.32 121.54
  A 0.19 0.18 -46.2 0 1 72.96 121.55
  L 71.88 117.30
  A 0.87 0.87 0.0 0 0 71.15 116.66
  Q 70.98 116.64 70.75 116.64
  Q 70.53 116.64 70.35 116.66
  A 0.87 0.87 0.0 0 0 69.62 117.29
  L 68.49 121.52
  A 0.19 0.18 46.9 0 1 68.13 121.51
  L 67.24 117.11
  A 0.83 0.83 0.0 0 0 66.14 116.50
  L 65.72 116.66
  A 0.63 0.63 0.0 0 0 65.35 117.48
  L 67.40 122.91
  A 1.10 1.10 0.0 0 0 69.51 122.70
  Q 70.20 118.45 70.74 118.45"
/>
<path stroke="#808489" vector-effect="non-scaling-stroke" d="
  M 87.73 120.26
  C 87.84 123.31 90.43 124.42 93.16 123.18
  A 0.40 0.39 -12.8 0 0 93.39 122.82
  L 93.39 122.29
  A 0.44 0.44 0.0 0 0 92.73 121.91
  C 90.89 122.95 89.76 122.17 89.69 120.19
  C 89.62 118.21 90.70 117.35 92.60 118.26
  A 0.44 0.44 0.0 0 0 93.23 117.83
  L 93.20 117.31
  A 0.40 0.39 8.8 0 0 92.94 116.96
  C 90.13 115.91 87.63 117.21 87.73 120.26"
/>
<path stroke="#808489" vector-effect="non-scaling-stroke" d="
  M 110.33 120.14
  A 3.54 3.54 0.0 0 0 106.79 116.60
  A 3.54 3.54 0.0 0 0 103.25 120.14
  A 3.54 3.54 0.0 0 0 106.79 123.68
  A 3.54 3.54 0.0 0 0 110.33 120.14"
/>
<path stroke="#808489" vector-effect="non-scaling-stroke" d="
  M 118.62 120.13
  A 3.54 3.54 0.0 0 0 115.08 116.59
  A 3.54 3.54 0.0 0 0 111.54 120.13
  A 3.54 3.54 0.0 0 0 115.08 123.67
  A 3.54 3.54 0.0 0 0 118.62 120.13"
/>
<path stroke="#808489" vector-effect="non-scaling-stroke" d="
  M 151.12 117.18
  C 149.39 115.91 148.10 117.35 146.27 116.63
  A 0.54 0.54 0.0 0 0 145.54 117.13
  L 145.54 122.96
  A 0.74 0.73 -0.0 0 0 146.28 123.69
  L 146.66 123.69
  A 0.47 0.47 0.0 0 0 147.13 123.22
  L 147.13 118.83
  A 0.83 0.82 90.0 0 1 147.95 118.00
  L 148.96 118.00
  A 0.90 0.89 -90.0 0 1 149.85 118.90
  L 149.85 122.75
  A 1.04 1.04 0.0 0 0 150.67 123.77
  L 151.01 123.84
  A 0.56 0.55 -83.8 0 0 151.68 123.29
  L 151.68 119.36
  A 1.32 1.32 0.0 0 1 152.76 118.06
  L 153.09 118.00
  A 1.17 1.16 84.9 0 1 154.46 119.15
  L 154.46 123.13
  A 0.59 0.59 0.0 0 0 155.05 123.72
  L 155.48 123.72
  A 0.69 0.69 0.0 0 0 156.17 123.03
  L 156.17 118.35
  A 1.22 1.20 -71.6 0 0 155.70 117.39
  Q 153.68 115.86 151.84 117.19
  A 0.63 0.62 45.4 0 1 151.12 117.18"
/>
<path stroke="#808489" vector-effect="non-scaling-stroke" d="
  M 160.2057 117.1544
  A 0.49 0.49 0.0 0 0 159.7183 116.6618
  L 159.0383 116.6583
  A 0.49 0.49 0.0 0 0 158.5457 117.1457
  L 158.5143 123.1456
  A 0.49 0.49 0.0 0 0 159.0017 123.6382
  L 159.6817 123.6417
  A 0.49 0.49 0.0 0 0 160.1743 123.1543
  L 160.2057 117.1544"
/>
<path stroke="#808489" vector-effect="non-scaling-stroke" d="
  M 162.03 123.13
  A 0.10 0.09 8.3 0 0 162.08 123.19
  Q 164.79 124.54 166.65 123.06
  A 1.80 1.80 0.0 0 0 166.44 120.09
  L 164.12 118.75
  A 0.46 0.46 0.0 0 1 164.33 117.89
  Q 165.33 117.85 166.51 118.20
  A 0.42 0.41 -65.7 0 0 166.99 118.01
  L 167.17 117.70
  A 0.55 0.55 0.0 0 0 166.84 116.90
  Q 165.05 116.39 163.60 116.73
  A 1.78 1.78 0.0 0 0 163.12 120.00
  L 165.32 121.27
  A 0.68 0.68 0.0 0 1 165.15 122.51
  Q 164.23 122.74 162.53 122.00
  A 0.43 0.42 -82.0 0 0 161.94 122.45
  L 162.03 123.13"
/>
<path stroke="#808489" vector-effect="non-scaling-stroke" d="
  M 168.56 123.18
  A 0.10 0.09 5.9 0 0 168.61 123.24
  Q 171.38 124.48 173.18 122.92
  A 1.81 1.80 -51.5 0 0 172.85 119.96
  L 170.47 118.71
  A 0.46 0.46 0.0 0 1 170.65 117.84
  Q 171.65 117.76 172.84 118.06
  A 0.42 0.41 -68.0 0 0 173.32 117.85
  L 173.49 117.53
  A 0.55 0.55 0.0 0 0 173.12 116.74
  Q 171.31 116.31 169.87 116.71
  A 1.78 1.78 0.0 0 0 169.52 120.00
  L 171.78 121.18
  A 0.68 0.68 0.0 0 1 171.66 122.43
  Q 170.75 122.70 169.01 122.03
  A 0.43 0.42 -84.3 0 0 168.44 122.50
  L 168.56 123.18"
/>
<path stroke="#808489" vector-effect="non-scaling-stroke" d="
  M 183.0334 116.4668
  A 3.66 3.45 -86.5 0 0 179.3664 119.9094
  A 3.66 3.45 -86.5 0 0 182.5866 123.7732
  A 3.66 3.45 -86.5 0 0 186.2536 120.3306
  A 3.66 3.45 -86.5 0 0 183.0334 116.4668"
/>
<path stroke="#808489" vector-effect="non-scaling-stroke" d="
  M 187.96 116.98
  L 187.96 123.01
  A 0.71 0.70 90.0 0 0 188.66 123.72
  L 188.94 123.72
  A 0.69 0.69 0.0 0 0 189.63 123.02
  L 189.61 119.73
  A 1.73 1.72 -4.3 0 1 191.10 118.00
  L 191.22 117.98
  A 1.29 1.29 0.0 0 1 192.71 119.29
  L 192.61 123.06
  A 0.59 0.59 0.0 0 0 193.20 123.67
  L 193.78 123.67
  A 0.57 0.56 0.0 0 0 194.35 123.11
  L 194.35 117.29
  A 0.48 0.48 0.0 0 0 193.87 116.81
  L 188.12 116.81
  A 0.17 0.16 90.0 0 0 187.96 116.98"
/>
<path stroke="#808489" vector-effect="non-scaling-stroke" d="
  M 212.98 121.99
  Q 210.89 123.19 209.29 121.50
  A 0.56 0.56 0.0 0 1 209.69 120.55
  L 213.58 120.55
  A 0.54 0.53 -5.7 0 0 214.11 119.91
  Q 213.59 117.26 212.53 116.95
  Q 208.17 115.66 207.65 119.53
  Q 207.08 123.71 211.75 123.70
  Q 212.59 123.70 213.23 123.37
  A 0.67 0.67 0.0 0 0 213.58 122.78
  L 213.58 122.34
  A 0.40 0.40 0.0 0 0 212.98 121.99"
/>
<path stroke="#808489" vector-effect="non-scaling-stroke" d="
  M 215.26 123.10
  A 0.10 0.09 7.7 0 0 215.31 123.16
  Q 218.00 124.47 219.82 122.99
  A 1.78 1.77 -49.7 0 0 219.58 120.06
  L 217.28 118.75
  A 0.46 0.46 0.0 0 1 217.48 117.90
  Q 218.47 117.85 219.64 118.19
  A 0.41 0.40 -66.2 0 0 220.11 118.00
  L 220.28 117.69
  A 0.54 0.54 0.0 0 0 219.95 116.90
  Q 218.18 116.41 216.75 116.76
  A 1.76 1.75 52.8 0 0 216.30 120.00
  L 218.49 121.23
  A 0.67 0.67 0.0 0 1 218.33 122.46
  Q 217.43 122.69 215.74 121.98
  A 0.42 0.42 0.0 0 0 215.16 122.43
  L 215.26 123.10"
/>
<path stroke="#808489" vector-effect="non-scaling-stroke" d="
  M 177.5011 117.2615
  A 0.56 0.56 0.0 0 0 176.9490 116.6937
  L 176.4690 116.6870
  A 0.56 0.56 0.0 0 0 175.9013 117.2391
  L 175.8189 123.1385
  A 0.56 0.56 0.0 0 0 176.3710 123.7063
  L 176.8510 123.7130
  A 0.56 0.56 0.0 0 0 177.4187 123.1609
  L 177.5011 117.2615"
/>
<path stroke="#8499ae" vector-effect="non-scaling-stroke" d="
  M 159.53 88.92
  Q 164.54 88.90 164.97 88.80
  A 0.32 0.31 76.6 0 0 165.20 88.41
  L 159.64 66.57
  A 0.23 0.10 83.2 0 0 159.55 66.42
  Q 159.48 66.39 159.45 66.39
  Q 159.42 66.39 159.35 66.42
  A 0.23 0.10 -83.6 0 0 159.26 66.57
  L 153.85 88.45
  A 0.32 0.31 -77.0 0 0 154.09 88.84
  Q 154.52 88.94 159.53 88.92"
/>
<path stroke="#808489" vector-effect="non-scaling-stroke" d="
  M 141.6056 119.2816
  A 1.30 1.30 0.0 0 0 140.2988 117.9884
  L 139.6788 117.9917
  A 1.30 1.30 0.0 0 0 138.3856 119.2984
  L 138.3944 120.9784
  A 1.30 1.30 0.0 0 0 139.7012 122.2716
  L 140.3212 122.2683
  A 1.30 1.30 0.0 0 0 141.6144 120.9616
  L 141.6056 119.2816"
/>
<path stroke="#808489" vector-effect="non-scaling-stroke" d="
  M 130.48 119.95
  L 132.10 119.95
  A 0.24 0.24 0.0 0 0 132.34 119.72
  L 132.34 119.57
  A 3.35 1.03 -89.7 0 0 131.33 116.21
  L 131.29 116.21
  A 3.35 1.03 -89.7 0 0 130.24 119.55
  L 130.24 119.70
  A 0.24 0.24 0.0 0 0 130.48 119.95"
/>
<path stroke="#808489" vector-effect="non-scaling-stroke" d="
  M 62.0573 120.5395
  A 0.91 0.91 0.0 0 0 60.8221 120.1783
  L 59.7871 120.7450
  A 0.91 0.91 0.0 0 0 59.4259 121.9802
  L 59.5027 122.1205
  A 0.91 0.91 0.0 0 0 60.7379 122.4817
  L 61.7729 121.9150
  A 0.91 0.91 0.0 0 0 62.1341 120.6798
  L 62.0573 120.5395"
/>
<path stroke="#808489" vector-effect="non-scaling-stroke" d="
  M 106.7720 117.8500
  A 2.29 1.67 -90.2 0 0 105.1100 120.1458
  A 2.29 1.67 -90.2 0 0 106.7880 122.4300
  A 2.29 1.67 -90.2 0 0 108.4500 120.1342
  A 2.29 1.67 -90.2 0 0 106.7720 117.8500"
/>
<path stroke="#808489" vector-effect="non-scaling-stroke" d="
  M 115.0645 117.8907
  A 2.27 1.72 -91.4 0 0 113.4005 120.2020
  A 2.27 1.72 -91.4 0 0 115.1755 122.4293
  A 2.27 1.72 -91.4 0 0 116.8395 120.1180
  A 2.27 1.72 -91.4 0 0 115.0645 117.8907"
/>
<path stroke="#808489" vector-effect="non-scaling-stroke" d="
  M 182.7627 117.9010
  A 2.27 1.75 -91.7 0 0 181.0808 120.2219
  A 2.27 1.75 -91.7 0 0 182.8973 122.4390
  A 2.27 1.75 -91.7 0 0 184.5792 120.1181
  A 2.27 1.75 -91.7 0 0 182.7627 117.9010"
/>
<path stroke="#808489" vector-effect="non-scaling-stroke" d="
  M 210.80 119.56
  Q 211.92 119.56 211.94 119.55
  A 0.61 0.61 0.0 0 0 212.35 118.79
  Q 212.05 117.79 210.81 117.78
  Q 209.57 117.78 209.26 118.78
  A 0.61 0.61 0.0 0 0 209.67 119.55
  Q 209.69 119.55 210.80 119.56"
/>
</g>
<path fill="#ffffff" d="
  M 280.00 0.00
  L 280.00 180.00
  L 0.00 180.00
  L 0.00 0.00
  L 280.00 0.00
  Z
  M 92.54 95.78
  L 92.54 107.18
  A 1.36 1.34 11.0 0 0 93.40 108.43
  Q 103.57 112.45 114.30 110.77
  C 123.10 109.40 129.63 103.78 129.81 94.46
  C 130.03 83.06 120.54 79.85 111.73 75.78
  C 109.93 74.95 106.51 72.95 107.17 70.54
  C 108.80 64.64 121.68 69.42 125.12 71.03
  A 0.33 0.32 -66.3 0 0 125.57 70.85
  L 129.49 60.83
  A 0.93 0.93 0.0 0 0 128.98 59.63
  Q 121.96 56.72 115.21 56.25
  C 105.74 55.59 94.13 58.76 92.95 69.47
  Q 91.60 81.67 102.64 86.89
  Q 111.38 91.03 112.93 91.98
  C 115.92 93.82 116.45 97.25 113.08 98.87
  C 108.17 101.22 97.89 97.76 93.20 95.38
  A 0.46 0.45 13.4 0 0 92.54 95.78
  Z
  M 159.41 100.91
  Q 167.16 100.89 167.67 100.93
  A 0.75 0.74 -4.7 0 1 168.34 101.49
  L 170.69 110.48
  A 0.70 0.69 -7.7 0 0 171.36 110.99
  L 186.17 110.99
  A 0.34 0.34 0.0 0 0 186.49 110.54
  L 169.08 57.45
  A 0.69 0.69 0.0 0 0 168.44 56.97
  Q 163.92 56.83 159.32 56.84
  Q 154.72 56.84 150.20 57.01
  A 0.69 0.69 0.0 0 0 149.56 57.49
  L 132.37 110.65
  A 0.34 0.34 0.0 0 0 132.69 111.10
  L 147.50 111.04
  A 0.70 0.69 7.4 0 0 148.17 110.53
  L 150.48 101.53
  A 0.75 0.74 4.5 0 1 151.15 100.96
  Q 151.66 100.92 159.41 100.91
  Z
  M 51.09 100.22
  L 51.01 110.49
  A 0.52 0.52 0.0 0 0 51.53 111.01
  L 85.53 111.01
  A 0.53 0.52 90.0 0 0 86.05 110.48
  L 86.10 102.96
  L 86.07 99.85
  A 0.56 0.56 0.0 0 0 85.51 99.29
  L 65.92 99.29
  A 0.44 0.44 0.0 0 1 65.48 98.85
  L 65.48 57.91
  A 0.59 0.59 0.0 0 0 64.89 57.32
  L 51.43 57.32
  A 0.46 0.46 0.0 0 0 50.97 57.78
  L 51.09 100.22
  Z
  M 201.06 79.23
  L 200.95 110.65
  A 0.34 0.34 0.0 0 0 201.29 110.99
  L 214.86 110.99
  A 0.40 0.40 0.0 0 0 215.26 110.59
  L 215.02 89.55
  L 215.20 69.67
  A 0.59 0.59 0.0 0 1 215.79 69.08
  L 227.85 69.08
  A 0.54 0.54 0.0 0 0 228.39 68.54
  L 228.39 57.88
  A 0.54 0.53 90.0 0 0 227.86 57.34
  L 188.51 57.34
  A 0.65 0.64 90.0 0 0 187.87 57.99
  L 187.87 68.57
  A 0.50 0.50 0.0 0 0 188.37 69.07
  L 200.15 69.07
  A 0.81 0.80 -0.4 0 1 200.96 69.86
  L 201.06 79.23
  Z
  M 96.98 123.00
  L 96.98 119.24
  A 1.16 1.16 0.0 0 1 98.14 118.08
  L 98.88 118.08
  A 0.91 0.91 0.0 0 1 99.79 118.99
  L 99.79 122.96
  A 0.67 0.67 0.0 0 0 100.46 123.63
  L 101.19 123.63
  A 0.69 0.69 0.0 0 0 101.88 122.93
  C 101.83 120.05 102.35 114.88 97.34 117.07
  A 0.29 0.29 0.0 0 1 96.93 116.80
  L 96.93 114.51
  A 0.65 0.65 0.0 0 0 96.28 113.86
  L 95.93 113.86
  A 0.61 0.61 0.0 0 0 95.32 114.47
  L 95.32 123.24
  A 0.53 0.52 -90.0 0 0 95.84 123.77
  L 96.21 123.77
  A 0.77 0.77 0.0 0 0 96.98 123.00
  Z
  M 140.93 117.06
  C 136.76 115.49 135.91 119.33 137.08 122.24
  A 2.22 1.97 66.5 0 0 139.85 123.53
  Q 141.09 122.94 142.58 123.60
  A 0.44 0.44 0.0 0 0 143.21 123.20
  L 143.21 114.53
  A 0.64 0.64 0.0 0 0 142.57 113.89
  L 141.88 113.89
  A 0.36 0.35 -0.0 0 0 141.52 114.24
  L 141.52 116.64
  A 0.44 0.44 0.0 0 1 140.93 117.06
  Z
  M 122.1002 114.4865
  A 0.55 0.55 0.0 0 0 121.5541 113.9326
  L 120.8341 113.9276
  A 0.55 0.55 0.0 0 0 120.2803 114.4738
  L 120.2198 123.1335
  A 0.55 0.55 0.0 0 0 120.7659 123.6874
  L 121.4859 123.6924
  A 0.55 0.55 0.0 0 0 122.0397 123.1462
  L 122.1002 114.4865
  Z
  M 160.1331 114.2729
  A 0.96 0.84 -29.8 0 0 158.8825 114.0211
  A 0.96 0.84 -29.8 0 0 158.4669 115.2271
  A 0.96 0.84 -29.8 0 0 159.7175 115.4789
  A 0.96 0.84 -29.8 0 0 160.1331 114.2729
  Z
  M 175.6703 114.7046
  A 0.97 0.82 -178.5 0 0 176.6185 115.5497
  A 0.97 0.82 -178.5 0 0 177.6097 114.7554
  A 0.97 0.82 -178.5 0 0 176.6615 113.9103
  A 0.97 0.82 -178.5 0 0 175.6703 114.7046
  Z
  M 56.29 123.56
  A 0.30 0.30 0.0 0 0 56.59 123.26
  L 56.59 122.47
  A 0.30 0.30 0.0 0 0 56.29 122.17
  L 52.74 122.17
  A 0.30 0.30 0.0 0 1 52.44 121.87
  L 52.44 114.84
  A 0.30 0.30 0.0 0 0 52.14 114.54
  L 51.17 114.54
  A 0.30 0.30 0.0 0 0 50.87 114.84
  L 50.87 123.26
  A 0.30 0.30 0.0 0 0 51.17 123.56
  L 56.29 123.56
  Z
  M 80.50 122.44
  A 0.89 0.89 0.0 0 0 81.11 123.41
  Q 83.40 124.15 85.57 123.07
  A 1.52 1.50 88.5 0 0 86.30 122.29
  Q 86.71 121.24 86.04 119.76
  A 1.33 1.33 0.0 0 0 85.46 119.12
  L 82.70 117.52
  A 0.77 0.76 -42.2 0 1 82.77 116.16
  Q 83.91 115.64 85.72 116.17
  A 0.41 0.41 0.0 0 0 86.19 115.98
  L 86.35 115.71
  A 0.57 0.57 0.0 0 0 86.08 114.90
  C 83.82 113.97 79.92 114.28 80.85 117.84
  A 1.38 1.36 -83.0 0 0 81.49 118.67
  L 84.40 120.36
  A 0.98 0.97 50.6 0 1 84.23 122.13
  Q 82.80 122.61 81.27 121.79
  A 0.50 0.50 0.0 0 0 80.54 122.16
  L 80.50 122.44
  Z
  M 131.34 121.34
  Q 132.70 121.35 132.72 121.35
  A 0.88 0.88 0.0 0 1 133.43 122.09
  Q 133.64 123.47 134.67 123.78
  A 0.61 0.61 0.0 0 0 135.43 123.01
  L 132.86 115.18
  A 0.86 0.86 0.0 0 0 132.11 114.59
  Q 131.91 114.57 131.37 114.57
  Q 130.84 114.57 130.64 114.58
  A 0.86 0.86 0.0 0 0 129.88 115.17
  L 127.23 122.97
  A 0.61 0.61 0.0 0 0 127.98 123.75
  Q 129.02 123.45 129.24 122.07
  A 0.88 0.88 0.0 0 1 129.96 121.34
  Q 129.98 121.34 131.34 121.34
  Z
  M 202.85 123.79
  Q 203.67 123.79 203.67 122.92
  Q 203.71 118.53 203.59 116.63
  A 0.62 0.61 -2.1 0 1 204.21 115.97
  L 205.98 115.97
  A 0.53 0.53 0.0 0 0 206.51 115.44
  L 206.51 115.05
  A 0.46 0.46 0.0 0 0 206.02 114.59
  Q 204.50 114.67 202.85 114.57
  Q 201.21 114.67 199.69 114.59
  A 0.46 0.46 0.0 0 0 199.20 115.05
  L 199.20 115.44
  A 0.53 0.53 0.0 0 0 199.73 115.97
  L 201.50 115.97
  A 0.62 0.61 2.1 0 1 202.12 116.63
  Q 202.00 118.53 202.04 122.92
  Q 202.04 123.79 202.85 123.79
  Z
  M 224.13 116.19
  Q 224.21 116.03 224.19 115.58
  A 0.59 0.58 -38.8 0 0 223.04 115.46
  Q 222.77 116.41 221.79 117.09
  A 0.45 0.44 51.3 0 0 221.72 117.76
  Q 221.92 117.99 222.25 117.98
  A 0.39 0.39 0.0 0 1 222.65 118.37
  L 222.65 122.47
  A 0.92 0.92 0.0 0 0 223.17 123.30
  Q 224.36 123.87 225.96 123.64
  A 0.53 0.52 86.3 0 0 226.41 123.12
  L 226.41 122.79
  A 0.48 0.47 0.0 0 0 225.93 122.32
  L 224.69 122.32
  A 0.57 0.57 0.0 0 1 224.12 121.75
  L 224.12 118.47
  A 0.40 0.40 0.0 0 1 224.55 118.07
  Q 225.23 118.11 226.00 117.84
  A 0.53 0.53 0.0 0 0 225.98 116.83
  Q 225.13 116.58 224.52 116.71
  A 0.36 0.36 0.0 0 1 224.13 116.19
  Z
  M 63.76 118.18
  A 1.52 1.52 0.0 0 0 62.24 116.66
  L 59.17 116.66
  A 0.63 0.63 0.0 0 0 58.54 117.29
  L 58.54 117.63
  A 0.45 0.45 0.0 0 0 58.99 118.08
  L 61.81 118.08
  A 0.37 0.37 0.0 0 1 62.18 118.45
  L 62.18 118.77
  A 0.59 0.59 0.0 0 1 61.59 119.36
  Q 59.96 119.38 58.76 119.81
  A 2.20 1.89 57.6 0 0 58.27 123.18
  C 59.57 124.63 61.51 122.64 62.93 123.46
  A 0.55 0.55 0.0 0 0 63.76 122.98
  L 63.76 118.18
  Z
  M 70.74 118.45
  Q 71.28 118.45 71.92 122.71
  A 1.10 1.10 0.0 0 0 74.03 122.95
  L 76.14 117.54
  A 0.63 0.63 0.0 0 0 75.78 116.72
  L 75.37 116.56
  A 0.83 0.83 0.0 0 0 74.26 117.15
  L 73.32 121.54
  A 0.19 0.18 -46.2 0 1 72.96 121.55
  L 71.88 117.30
  A 0.87 0.87 0.0 0 0 71.15 116.66
  Q 70.98 116.64 70.75 116.64
  Q 70.53 116.64 70.35 116.66
  A 0.87 0.87 0.0 0 0 69.62 117.29
  L 68.49 121.52
  A 0.19 0.18 46.9 0 1 68.13 121.51
  L 67.24 117.11
  A 0.83 0.83 0.0 0 0 66.14 116.50
  L 65.72 116.66
  A 0.63 0.63 0.0 0 0 65.35 117.48
  L 67.40 122.91
  A 1.10 1.10 0.0 0 0 69.51 122.70
  Q 70.20 118.45 70.74 118.45
  Z
  M 87.73 120.26
  C 87.84 123.31 90.43 124.42 93.16 123.18
  A 0.40 0.39 -12.8 0 0 93.39 122.82
  L 93.39 122.29
  A 0.44 0.44 0.0 0 0 92.73 121.91
  C 90.89 122.95 89.76 122.17 89.69 120.19
  C 89.62 118.21 90.70 117.35 92.60 118.26
  A 0.44 0.44 0.0 0 0 93.23 117.83
  L 93.20 117.31
  A 0.40 0.39 8.8 0 0 92.94 116.96
  C 90.13 115.91 87.63 117.21 87.73 120.26
  Z
  M 110.33 120.14
  A 3.54 3.54 0.0 0 0 106.79 116.60
  A 3.54 3.54 0.0 0 0 103.25 120.14
  A 3.54 3.54 0.0 0 0 106.79 123.68
  A 3.54 3.54 0.0 0 0 110.33 120.14
  Z
  M 118.62 120.13
  A 3.54 3.54 0.0 0 0 115.08 116.59
  A 3.54 3.54 0.0 0 0 111.54 120.13
  A 3.54 3.54 0.0 0 0 115.08 123.67
  A 3.54 3.54 0.0 0 0 118.62 120.13
  Z
  M 151.12 117.18
  C 149.39 115.91 148.10 117.35 146.27 116.63
  A 0.54 0.54 0.0 0 0 145.54 117.13
  L 145.54 122.96
  A 0.74 0.73 -0.0 0 0 146.28 123.69
  L 146.66 123.69
  A 0.47 0.47 0.0 0 0 147.13 123.22
  L 147.13 118.83
  A 0.83 0.82 90.0 0 1 147.95 118.00
  L 148.96 118.00
  A 0.90 0.89 -90.0 0 1 149.85 118.90
  L 149.85 122.75
  A 1.04 1.04 0.0 0 0 150.67 123.77
  L 151.01 123.84
  A 0.56 0.55 -83.8 0 0 151.68 123.29
  L 151.68 119.36
  A 1.32 1.32 0.0 0 1 152.76 118.06
  L 153.09 118.00
  A 1.17 1.16 84.9 0 1 154.46 119.15
  L 154.46 123.13
  A 0.59 0.59 0.0 0 0 155.05 123.72
  L 155.48 123.72
  A 0.69 0.69 0.0 0 0 156.17 123.03
  L 156.17 118.35
  A 1.22 1.20 -71.6 0 0 155.70 117.39
  Q 153.68 115.86 151.84 117.19
  A 0.63 0.62 45.4 0 1 151.12 117.18
  Z
  M 160.2057 117.1544
  A 0.49 0.49 0.0 0 0 159.7183 116.6618
  L 159.0383 116.6583
  A 0.49 0.49 0.0 0 0 158.5457 117.1457
  L 158.5143 123.1456
  A 0.49 0.49 0.0 0 0 159.0017 123.6382
  L 159.6817 123.6417
  A 0.49 0.49 0.0 0 0 160.1743 123.1543
  L 160.2057 117.1544
  Z
  M 162.03 123.13
  A 0.10 0.09 8.3 0 0 162.08 123.19
  Q 164.79 124.54 166.65 123.06
  A 1.80 1.80 0.0 0 0 166.44 120.09
  L 164.12 118.75
  A 0.46 0.46 0.0 0 1 164.33 117.89
  Q 165.33 117.85 166.51 118.20
  A 0.42 0.41 -65.7 0 0 166.99 118.01
  L 167.17 117.70
  A 0.55 0.55 0.0 0 0 166.84 116.90
  Q 165.05 116.39 163.60 116.73
  A 1.78 1.78 0.0 0 0 163.12 120.00
  L 165.32 121.27
  A 0.68 0.68 0.0 0 1 165.15 122.51
  Q 164.23 122.74 162.53 122.00
  A 0.43 0.42 -82.0 0 0 161.94 122.45
  L 162.03 123.13
  Z
  M 168.56 123.18
  A 0.10 0.09 5.9 0 0 168.61 123.24
  Q 171.38 124.48 173.18 122.92
  A 1.81 1.80 -51.5 0 0 172.85 119.96
  L 170.47 118.71
  A 0.46 0.46 0.0 0 1 170.65 117.84
  Q 171.65 117.76 172.84 118.06
  A 0.42 0.41 -68.0 0 0 173.32 117.85
  L 173.49 117.53
  A 0.55 0.55 0.0 0 0 173.12 116.74
  Q 171.31 116.31 169.87 116.71
  A 1.78 1.78 0.0 0 0 169.52 120.00
  L 171.78 121.18
  A 0.68 0.68 0.0 0 1 171.66 122.43
  Q 170.75 122.70 169.01 122.03
  A 0.43 0.42 -84.3 0 0 168.44 122.50
  L 168.56 123.18
  Z
  M 183.0334 116.4668
  A 3.66 3.45 -86.5 0 0 179.3664 119.9094
  A 3.66 3.45 -86.5 0 0 182.5866 123.7732
  A 3.66 3.45 -86.5 0 0 186.2536 120.3306
  A 3.66 3.45 -86.5 0 0 183.0334 116.4668
  Z
  M 187.96 116.98
  L 187.96 123.01
  A 0.71 0.70 90.0 0 0 188.66 123.72
  L 188.94 123.72
  A 0.69 0.69 0.0 0 0 189.63 123.02
  L 189.61 119.73
  A 1.73 1.72 -4.3 0 1 191.10 118.00
  L 191.22 117.98
  A 1.29 1.29 0.0 0 1 192.71 119.29
  L 192.61 123.06
  A 0.59 0.59 0.0 0 0 193.20 123.67
  L 193.78 123.67
  A 0.57 0.56 0.0 0 0 194.35 123.11
  L 194.35 117.29
  A 0.48 0.48 0.0 0 0 193.87 116.81
  L 188.12 116.81
  A 0.17 0.16 90.0 0 0 187.96 116.98
  Z
  M 212.98 121.99
  Q 210.89 123.19 209.29 121.50
  A 0.56 0.56 0.0 0 1 209.69 120.55
  L 213.58 120.55
  A 0.54 0.53 -5.7 0 0 214.11 119.91
  Q 213.59 117.26 212.53 116.95
  Q 208.17 115.66 207.65 119.53
  Q 207.08 123.71 211.75 123.70
  Q 212.59 123.70 213.23 123.37
  A 0.67 0.67 0.0 0 0 213.58 122.78
  L 213.58 122.34
  A 0.40 0.40 0.0 0 0 212.98 121.99
  Z
  M 215.26 123.10
  A 0.10 0.09 7.7 0 0 215.31 123.16
  Q 218.00 124.47 219.82 122.99
  A 1.78 1.77 -49.7 0 0 219.58 120.06
  L 217.28 118.75
  A 0.46 0.46 0.0 0 1 217.48 117.90
  Q 218.47 117.85 219.64 118.19
  A 0.41 0.40 -66.2 0 0 220.11 118.00
  L 220.28 117.69
  A 0.54 0.54 0.0 0 0 219.95 116.90
  Q 218.18 116.41 216.75 116.76
  A 1.76 1.75 52.8 0 0 216.30 120.00
  L 218.49 121.23
  A 0.67 0.67 0.0 0 1 218.33 122.46
  Q 217.43 122.69 215.74 121.98
  A 0.42 0.42 0.0 0 0 215.16 122.43
  L 215.26 123.10
  Z
  M 177.5011 117.2615
  A 0.56 0.56 0.0 0 0 176.9490 116.6937
  L 176.4690 116.6870
  A 0.56 0.56 0.0 0 0 175.9013 117.2391
  L 175.8189 123.1385
  A 0.56 0.56 0.0 0 0 176.3710 123.7063
  L 176.8510 123.7130
  A 0.56 0.56 0.0 0 0 177.4187 123.1609
  L 177.5011 117.2615
  Z"
/>
<path fill="#09325d" d="
  M 93.20 95.38
  C 97.89 97.76 108.17 101.22 113.08 98.87
  C 116.45 97.25 115.92 93.82 112.93 91.98
  Q 111.38 91.03 102.64 86.89
  Q 91.60 81.67 92.95 69.47
  C 94.13 58.76 105.74 55.59 115.21 56.25
  Q 121.96 56.72 128.98 59.63
  A 0.93 0.93 0.0 0 1 129.49 60.83
  L 125.57 70.85
  A 0.33 0.32 -66.3 0 1 125.12 71.03
  C 121.68 69.42 108.80 64.64 107.17 70.54
  C 106.51 72.95 109.93 74.95 111.73 75.78
  C 120.54 79.85 130.03 83.06 129.81 94.46
  C 129.63 103.78 123.10 109.40 114.30 110.77
  Q 103.57 112.45 93.40 108.43
  A 1.36 1.34 11.0 0 1 92.54 107.18
  L 92.54 95.78
  A 0.46 0.45 13.4 0 1 93.20 95.38
  Z"
/>
<path fill="#09325d" d="
  M 159.32 56.84
  Q 163.92 56.83 168.44 56.97
  A 0.69 0.69 0.0 0 1 169.08 57.45
  L 186.49 110.54
  A 0.34 0.34 0.0 0 1 186.17 110.99
  L 171.36 110.99
  A 0.70 0.69 -7.7 0 1 170.69 110.48
  L 168.34 101.49
  A 0.75 0.74 -4.7 0 0 167.67 100.93
  Q 167.16 100.89 159.41 100.91
  Q 151.66 100.92 151.15 100.96
  A 0.75 0.74 4.5 0 0 150.48 101.53
  L 148.17 110.53
  A 0.70 0.69 7.4 0 1 147.50 111.04
  L 132.69 111.10
  A 0.34 0.34 0.0 0 1 132.37 110.65
  L 149.56 57.49
  A 0.69 0.69 0.0 0 1 150.20 57.01
  Q 154.72 56.84 159.32 56.84
  Z
  M 159.53 88.92
  Q 164.54 88.90 164.97 88.80
  A 0.32 0.31 76.6 0 0 165.20 88.41
  L 159.64 66.57
  A 0.23 0.10 83.2 0 0 159.55 66.42
  Q 159.48 66.39 159.45 66.39
  Q 159.42 66.39 159.35 66.42
  A 0.23 0.10 -83.6 0 0 159.26 66.57
  L 153.85 88.45
  A 0.32 0.31 -77.0 0 0 154.09 88.84
  Q 154.52 88.94 159.53 88.92
  Z"
/>
<path fill="#09325d" d="
  M 86.10 102.96
  Q 85.96 102.79 85.79 102.83
  Q 85.23 102.98 85.23 103.67
  Q 85.22 106.99 85.23 109.39
  A 0.48 0.48 0.0 0 1 84.75 109.87
  L 53.14 109.87
  A 0.82 0.82 0.0 0 1 52.32 109.01
  Q 52.56 104.64 51.09 100.22
  L 50.97 57.78
  A 0.46 0.46 0.0 0 1 51.43 57.32
  L 64.89 57.32
  A 0.59 0.59 0.0 0 1 65.48 57.91
  L 65.48 98.85
  A 0.44 0.44 0.0 0 0 65.92 99.29
  L 85.51 99.29
  A 0.56 0.56 0.0 0 1 86.07 99.85
  L 86.10 102.96
  Z"
/>
<path fill="#09325d" d="
  M 215.02 89.55
  Q 213.77 99.29 214.10 108.70
  A 0.97 0.97 0.0 0 1 213.13 109.71
  L 203.20 109.71
  A 0.67 0.67 0.0 0 1 202.53 109.07
  L 201.06 79.23
  L 200.96 69.86
  A 0.81 0.80 -0.4 0 0 200.15 69.07
  L 188.37 69.07
  A 0.50 0.50 0.0 0 1 187.87 68.57
  L 187.87 57.99
  A 0.65 0.64 -90.0 0 1 188.51 57.34
  L 227.86 57.34
  A 0.54 0.53 90.0 0 1 228.39 57.88
  L 228.39 68.54
  A 0.54 0.54 0.0 0 1 227.85 69.08
  L 215.79 69.08
  A 0.59 0.59 0.0 0 0 215.20 69.67
  L 215.02 89.55
  Z"
/>
<path fill="#ffffff" d="
  M 159.53 88.92
  Q 154.52 88.94 154.09 88.84
  A 0.32 0.31 -77.0 0 1 153.85 88.45
  L 159.26 66.57
  A 0.23 0.10 -83.6 0 1 159.35 66.42
  Q 159.42 66.39 159.45 66.39
  Q 159.48 66.39 159.55 66.42
  A 0.23 0.10 83.2 0 1 159.64 66.57
  L 165.20 88.41
  A 0.32 0.31 76.6 0 1 164.97 88.80
  Q 164.54 88.90 159.53 88.92
  Z"
/>
<path fill="#010912" d="
  M 215.02 89.55
  L 215.26 110.59
  A 0.40 0.40 0.0 0 1 214.86 110.99
  L 201.29 110.99
  A 0.34 0.34 0.0 0 1 200.95 110.65
  L 201.06 79.23
  L 202.53 109.07
  A 0.67 0.67 0.0 0 0 203.20 109.71
  L 213.13 109.71
  A 0.97 0.97 0.0 0 0 214.10 108.70
  Q 213.77 99.29 215.02 89.55
  Z"
/>
<path fill="#010912" d="
  M 86.10 102.96
  L 86.05 110.48
  A 0.53 0.52 90.0 0 1 85.53 111.01
  L 51.53 111.01
  A 0.52 0.52 0.0 0 1 51.01 110.49
  L 51.09 100.22
  Q 52.56 104.64 52.32 109.01
  A 0.82 0.82 0.0 0 0 53.14 109.87
  L 84.75 109.87
  A 0.48 0.48 0.0 0 0 85.23 109.39
  Q 85.22 106.99 85.23 103.67
  Q 85.23 102.98 85.79 102.83
  Q 85.96 102.79 86.10 102.96
  Z"
/>
<path fill="#010912" d="
  M 96.98 123.00
  A 0.77 0.77 0.0 0 1 96.21 123.77
  L 95.84 123.77
  A 0.53 0.52 -90.0 0 1 95.32 123.24
  L 95.32 114.47
  A 0.61 0.61 0.0 0 1 95.93 113.86
  L 96.28 113.86
  A 0.65 0.65 0.0 0 1 96.93 114.51
  L 96.93 116.80
  A 0.29 0.29 0.0 0 0 97.34 117.07
  C 102.35 114.88 101.83 120.05 101.88 122.93
  A 0.69 0.69 0.0 0 1 101.19 123.63
  L 100.46 123.63
  A 0.67 0.67 0.0 0 1 99.79 122.96
  L 99.79 118.99
  A 0.91 0.91 0.0 0 0 98.88 118.08
  L 98.14 118.08
  A 1.16 1.16 0.0 0 0 96.98 119.24
  L 96.98 123.00
  Z"
/>
<path fill="#010912" d="
  M 141.52 116.64
  L 141.52 114.24
  A 0.36 0.35 -0.0 0 1 141.88 113.89
  L 142.57 113.89
  A 0.64 0.64 0.0 0 1 143.21 114.53
  L 143.21 123.20
  A 0.44 0.44 0.0 0 1 142.58 123.60
  Q 141.09 122.94 139.85 123.53
  A 2.22 1.97 66.5 0 1 137.08 122.24
  C 135.91 119.33 136.76 115.49 140.93 117.06
  A 0.44 0.44 0.0 0 0 141.52 116.64
  Z
  M 141.6056 119.2816
  A 1.30 1.30 0.0 0 0 140.2988 117.9884
  L 139.6788 117.9917
  A 1.30 1.30 0.0 0 0 138.3856 119.2984
  L 138.3944 120.9784
  A 1.30 1.30 0.0 0 0 139.7012 122.2716
  L 140.3212 122.2683
  A 1.30 1.30 0.0 0 0 141.6144 120.9616
  L 141.6056 119.2816
  Z"
/>
<rect fill="#010912" x="-0.91" y="-4.88" transform="translate(121.16,118.81) rotate(0.4)" width="1.82" height="9.76" rx="0.55"/>
<ellipse fill="#010912" cx="0.00" cy="0.00" transform="translate(159.30,114.75) rotate(-29.8)" rx="0.96" ry="0.84"/>
<ellipse fill="#010912" cx="0.00" cy="0.00" transform="translate(176.64,114.73) rotate(-178.5)" rx="0.97" ry="0.82"/>
<path fill="#010912" d="
  M 56.29 123.56
  L 51.17 123.56
  A 0.30 0.30 0.0 0 1 50.87 123.26
  L 50.87 114.84
  A 0.30 0.30 0.0 0 1 51.17 114.54
  L 52.14 114.54
  A 0.30 0.30 0.0 0 1 52.44 114.84
  L 52.44 121.87
  A 0.30 0.30 0.0 0 0 52.74 122.17
  L 56.29 122.17
  A 0.30 0.30 0.0 0 1 56.59 122.47
  L 56.59 123.26
  A 0.30 0.30 0.0 0 1 56.29 123.56
  Z"
/>
<path fill="#010912" d="
  M 81.27 121.79
  Q 82.80 122.61 84.23 122.13
  A 0.98 0.97 50.6 0 0 84.40 120.36
  L 81.49 118.67
  A 1.38 1.36 -83.0 0 1 80.85 117.84
  C 79.92 114.28 83.82 113.97 86.08 114.90
  A 0.57 0.57 0.0 0 1 86.35 115.71
  L 86.19 115.98
  A 0.41 0.41 0.0 0 1 85.72 116.17
  Q 83.91 115.64 82.77 116.16
  A 0.77 0.76 -42.2 0 0 82.70 117.52
  L 85.46 119.12
  A 1.33 1.33 0.0 0 1 86.04 119.76
  Q 86.71 121.24 86.30 122.29
  A 1.52 1.50 88.5 0 1 85.57 123.07
  Q 83.40 124.15 81.11 123.41
  A 0.89 0.89 0.0 0 1 80.50 122.44
  L 80.54 122.16
  A 0.50 0.50 0.0 0 1 81.27 121.79
  Z"
/>
<path fill="#010912" d="
  M 131.37 114.57
  Q 131.91 114.57 132.11 114.59
  A 0.86 0.86 0.0 0 1 132.86 115.18
  L 135.43 123.01
  A 0.61 0.61 0.0 0 1 134.67 123.78
  Q 133.64 123.47 133.43 122.09
  A 0.88 0.88 0.0 0 0 132.72 121.35
  Q 132.70 121.35 131.34 121.34
  Q 129.98 121.34 129.96 121.34
  A 0.88 0.88 0.0 0 0 129.24 122.07
  Q 129.02 123.45 127.98 123.75
  A 0.61 0.61 0.0 0 1 127.23 122.97
  L 129.88 115.17
  A 0.86 0.86 0.0 0 1 130.64 114.58
  Q 130.84 114.57 131.37 114.57
  Z
  M 130.48 119.95
  L 132.10 119.95
  A 0.24 0.24 0.0 0 0 132.34 119.72
  L 132.34 119.57
  A 3.35 1.03 -89.7 0 0 131.33 116.21
  L 131.29 116.21
  A 3.35 1.03 -89.7 0 0 130.24 119.55
  L 130.24 119.70
  A 0.24 0.24 0.0 0 0 130.48 119.95
  Z"
/>
<path fill="#010912" d="
  M 202.85 114.57
  Q 204.50 114.67 206.02 114.59
  A 0.46 0.46 0.0 0 1 206.51 115.05
  L 206.51 115.44
  A 0.53 0.53 0.0 0 1 205.98 115.97
  L 204.21 115.97
  A 0.62 0.61 -2.1 0 0 203.59 116.63
  Q 203.71 118.53 203.67 122.92
  Q 203.67 123.79 202.85 123.79
  Q 202.04 123.79 202.04 122.92
  Q 202.00 118.53 202.12 116.63
  A 0.62 0.61 2.1 0 0 201.50 115.97
  L 199.73 115.97
  A 0.53 0.53 0.0 0 1 199.20 115.44
  L 199.20 115.05
  A 0.46 0.46 0.0 0 1 199.69 114.59
  Q 201.21 114.67 202.85 114.57
  Z"
/>
<path fill="#010912" d="
  M 224.52 116.71
  Q 225.13 116.58 225.98 116.83
  A 0.53 0.53 0.0 0 1 226.00 117.84
  Q 225.23 118.11 224.55 118.07
  A 0.40 0.40 0.0 0 0 224.12 118.47
  L 224.12 121.75
  A 0.57 0.57 0.0 0 0 224.69 122.32
  L 225.93 122.32
  A 0.48 0.47 -0.0 0 1 226.41 122.79
  L 226.41 123.12
  A 0.53 0.52 86.3 0 1 225.96 123.64
  Q 224.36 123.87 223.17 123.30
  A 0.92 0.92 0.0 0 1 222.65 122.47
  L 222.65 118.37
  A 0.39 0.39 0.0 0 0 222.25 117.98
  Q 221.92 117.99 221.72 117.76
  A 0.45 0.44 51.3 0 1 221.79 117.09
  Q 222.77 116.41 223.04 115.46
  A 0.59 0.58 -38.8 0 1 224.19 115.58
  Q 224.21 116.03 224.13 116.19
  A 0.36 0.36 0.0 0 0 224.52 116.71
  Z"
/>
<path fill="#ffffff" d="
  M 130.48 119.95
  A 0.24 0.24 0.0 0 1 130.24 119.70
  L 130.24 119.55
  A 3.35 1.03 -89.7 0 1 131.29 116.21
  L 131.33 116.21
  A 3.35 1.03 -89.7 0 1 132.34 119.57
  L 132.34 119.72
  A 0.24 0.24 0.0 0 1 132.10 119.95
  L 130.48 119.95
  Z"
/>
<path fill="#010912" d="
  M 62.93 123.46
  C 61.51 122.64 59.57 124.63 58.27 123.18
  A 2.20 1.89 57.6 0 1 58.76 119.81
  Q 59.96 119.38 61.59 119.36
  A 0.59 0.59 0.0 0 0 62.18 118.77
  L 62.18 118.45
  A 0.37 0.37 0.0 0 0 61.81 118.08
  L 58.99 118.08
  A 0.45 0.45 0.0 0 1 58.54 117.63
  L 58.54 117.29
  A 0.63 0.63 0.0 0 1 59.17 116.66
  L 62.24 116.66
  A 1.52 1.52 0.0 0 1 63.76 118.18
  L 63.76 122.98
  A 0.55 0.55 0.0 0 1 62.93 123.46
  Z
  M 62.0573 120.5395
  A 0.91 0.91 0.0 0 0 60.8221 120.1783
  L 59.7871 120.7450
  A 0.91 0.91 0.0 0 0 59.4259 121.9802
  L 59.5027 122.1205
  A 0.91 0.91 0.0 0 0 60.7379 122.4817
  L 61.7729 121.9150
  A 0.91 0.91 0.0 0 0 62.1341 120.6798
  L 62.0573 120.5395
  Z"
/>
<path fill="#010912" d="
  M 70.75 116.64
  Q 70.98 116.64 71.15 116.66
  A 0.87 0.87 0.0 0 1 71.88 117.30
  L 72.96 121.55
  A 0.19 0.18 -46.2 0 0 73.32 121.54
  L 74.26 117.15
  A 0.83 0.83 0.0 0 1 75.37 116.56
  L 75.78 116.72
  A 0.63 0.63 0.0 0 1 76.14 117.54
  L 74.03 122.95
  A 1.10 1.10 0.0 0 1 71.92 122.71
  Q 71.28 118.45 70.74 118.45
  Q 70.20 118.45 69.51 122.70
  A 1.10 1.10 0.0 0 1 67.40 122.91
  L 65.35 117.48
  A 0.63 0.63 0.0 0 1 65.72 116.66
  L 66.14 116.50
  A 0.83 0.83 0.0 0 1 67.24 117.11
  L 68.13 121.51
  A 0.19 0.18 46.9 0 0 68.49 121.52
  L 69.62 117.29
  A 0.87 0.87 0.0 0 1 70.35 116.66
  Q 70.53 116.64 70.75 116.64
  Z"
/>
<path fill="#010912" d="
  M 89.69 120.19
  C 89.76 122.17 90.89 122.95 92.73 121.91
  A 0.44 0.44 0.0 0 1 93.39 122.29
  L 93.39 122.82
  A 0.40 0.39 -12.8 0 1 93.16 123.18
  C 90.43 124.42 87.84 123.31 87.73 120.26
  C 87.63 117.21 90.13 115.91 92.94 116.96
  A 0.40 0.39 8.8 0 1 93.20 117.31
  L 93.23 117.83
  A 0.44 0.44 0.0 0 1 92.60 118.26
  C 90.70 117.35 89.62 118.21 89.69 120.19
  Z"
/>
<path fill="#010912" d="
  M 110.33 120.14
  A 3.54 3.54 0.0 0 1 106.79 123.68
  A 3.54 3.54 0.0 0 1 103.25 120.14
  A 3.54 3.54 0.0 0 1 106.79 116.60
  A 3.54 3.54 0.0 0 1 110.33 120.14
  Z
  M 106.7720 117.8500
  A 2.29 1.67 -90.2 0 0 105.1100 120.1458
  A 2.29 1.67 -90.2 0 0 106.7880 122.4300
  A 2.29 1.67 -90.2 0 0 108.4500 120.1342
  A 2.29 1.67 -90.2 0 0 106.7720 117.8500
  Z"
/>
<path fill="#010912" d="
  M 118.62 120.13
  A 3.54 3.54 0.0 0 1 115.08 123.67
  A 3.54 3.54 0.0 0 1 111.54 120.13
  A 3.54 3.54 0.0 0 1 115.08 116.59
  A 3.54 3.54 0.0 0 1 118.62 120.13
  Z
  M 115.0645 117.8907
  A 2.27 1.72 -91.4 0 0 113.4005 120.2020
  A 2.27 1.72 -91.4 0 0 115.1755 122.4293
  A 2.27 1.72 -91.4 0 0 116.8395 120.1180
  A 2.27 1.72 -91.4 0 0 115.0645 117.8907
  Z"
/>
<path fill="#010912" d="
  M 151.84 117.19
  Q 153.68 115.86 155.70 117.39
  A 1.22 1.20 -71.6 0 1 156.17 118.35
  L 156.17 123.03
  A 0.69 0.69 0.0 0 1 155.48 123.72
  L 155.05 123.72
  A 0.59 0.59 0.0 0 1 154.46 123.13
  L 154.46 119.15
  A 1.17 1.16 84.9 0 0 153.09 118.00
  L 152.76 118.06
  A 1.32 1.32 0.0 0 0 151.68 119.36
  L 151.68 123.29
  A 0.56 0.55 -83.8 0 1 151.01 123.84
  L 150.67 123.77
  A 1.04 1.04 0.0 0 1 149.85 122.75
  L 149.85 118.90
  A 0.90 0.89 90.0 0 0 148.96 118.00
  L 147.95 118.00
  A 0.83 0.82 -90.0 0 0 147.13 118.83
  L 147.13 123.22
  A 0.47 0.47 0.0 0 1 146.66 123.69
  L 146.28 123.69
  A 0.74 0.73 -0.0 0 1 145.54 122.96
  L 145.54 117.13
  A 0.54 0.54 0.0 0 1 146.27 116.63
  C 148.10 117.35 149.39 115.91 151.12 117.18
  A 0.63 0.62 45.4 0 0 151.84 117.19
  Z"
/>
<rect fill="#010912" x="-0.83" y="-3.49" transform="translate(159.36,120.15) rotate(0.3)" width="1.66" height="6.98" rx="0.49"/>
<path fill="#010912" d="
  M 162.53 122.00
  Q 164.23 122.74 165.15 122.51
  A 0.68 0.68 0.0 0 0 165.32 121.27
  L 163.12 120.00
  A 1.78 1.78 0.0 0 1 163.60 116.73
  Q 165.05 116.39 166.84 116.90
  A 0.55 0.55 0.0 0 1 167.17 117.70
  L 166.99 118.01
  A 0.42 0.41 -65.7 0 1 166.51 118.20
  Q 165.33 117.85 164.33 117.89
  A 0.46 0.46 0.0 0 0 164.12 118.75
  L 166.44 120.09
  A 1.80 1.80 0.0 0 1 166.65 123.06
  Q 164.79 124.54 162.08 123.19
  A 0.10 0.09 8.3 0 1 162.03 123.13
  L 161.94 122.45
  A 0.43 0.42 -82.0 0 1 162.53 122.00
  Z"
/>
<path fill="#010912" d="
  M 168.56 123.18
  L 168.44 122.50
  A 0.43 0.42 -84.3 0 1 169.01 122.03
  Q 170.75 122.70 171.66 122.43
  A 0.68 0.68 0.0 0 0 171.78 121.18
  L 169.52 120.00
  A 1.78 1.78 0.0 0 1 169.87 116.71
  Q 171.31 116.31 173.12 116.74
  A 0.55 0.55 0.0 0 1 173.49 117.53
  L 173.32 117.85
  A 0.42 0.41 -68.0 0 1 172.84 118.06
  Q 171.65 117.76 170.65 117.84
  A 0.46 0.46 0.0 0 0 170.47 118.71
  L 172.85 119.96
  A 1.81 1.80 -51.5 0 1 173.18 122.92
  Q 171.38 124.48 168.61 123.24
  A 0.10 0.09 5.9 0 1 168.56 123.18
  Z"
/>
<path fill="#010912" d="
  M 183.0334 116.4668
  A 3.66 3.45 -86.5 0 1 186.2536 120.3306
  A 3.66 3.45 -86.5 0 1 182.5866 123.7732
  A 3.66 3.45 -86.5 0 1 179.3664 119.9094
  A 3.66 3.45 -86.5 0 1 183.0334 116.4668
  Z
  M 182.7627 117.9010
  A 2.27 1.75 -91.7 0 0 181.0808 120.2219
  A 2.27 1.75 -91.7 0 0 182.8973 122.4390
  A 2.27 1.75 -91.7 0 0 184.5792 120.1181
  A 2.27 1.75 -91.7 0 0 182.7627 117.9010
  Z"
/>
<path fill="#010912" d="
  M 187.96 116.98
  A 0.17 0.16 90.0 0 1 188.12 116.81
  L 193.87 116.81
  A 0.48 0.48 0.0 0 1 194.35 117.29
  L 194.35 123.11
  A 0.57 0.56 -0.0 0 1 193.78 123.67
  L 193.20 123.67
  A 0.59 0.59 0.0 0 1 192.61 123.06
  L 192.71 119.29
  A 1.29 1.29 0.0 0 0 191.22 117.98
  L 191.10 118.00
  A 1.73 1.72 -4.3 0 0 189.61 119.73
  L 189.63 123.02
  A 0.69 0.69 0.0 0 1 188.94 123.72
  L 188.66 123.72
  A 0.71 0.70 90.0 0 1 187.96 123.01
  L 187.96 116.98
  Z"
/>
<path fill="#010912" d="
  M 212.98 121.99
  A 0.40 0.40 0.0 0 1 213.58 122.34
  L 213.58 122.78
  A 0.67 0.67 0.0 0 1 213.23 123.37
  Q 212.59 123.70 211.75 123.70
  Q 207.08 123.71 207.65 119.53
  Q 208.17 115.66 212.53 116.95
  Q 213.59 117.26 214.11 119.91
  A 0.54 0.53 -5.7 0 1 213.58 120.55
  L 209.69 120.55
  A 0.56 0.56 0.0 0 0 209.29 121.50
  Q 210.89 123.19 212.98 121.99
  Z
  M 210.80 119.56
  Q 211.92 119.56 211.94 119.55
  A 0.61 0.61 0.0 0 0 212.35 118.79
  Q 212.05 117.79 210.81 117.78
  Q 209.57 117.78 209.26 118.78
  A 0.61 0.61 0.0 0 0 209.67 119.55
  Q 209.69 119.55 210.80 119.56
  Z"
/>
<path fill="#010912" d="
  M 215.26 123.10
  L 215.16 122.43
  A 0.42 0.42 0.0 0 1 215.74 121.98
  Q 217.43 122.69 218.33 122.46
  A 0.67 0.67 0.0 0 0 218.49 121.23
  L 216.30 120.00
  A 1.76 1.75 52.8 0 1 216.75 116.76
  Q 218.18 116.41 219.95 116.90
  A 0.54 0.54 0.0 0 1 220.28 117.69
  L 220.11 118.00
  A 0.41 0.40 -66.2 0 1 219.64 118.19
  Q 218.47 117.85 217.48 117.90
  A 0.46 0.46 0.0 0 0 217.28 118.75
  L 219.58 120.06
  A 1.78 1.77 -49.7 0 1 219.82 122.99
  Q 218.00 124.47 215.31 123.16
  A 0.10 0.09 7.7 0 1 215.26 123.10
  Z"
/>
<rect fill="#010912" x="-0.80" y="-3.51" transform="translate(176.66,120.20) rotate(0.8)" width="1.60" height="7.02" rx="0.56"/>
<path fill="#ffffff" d="
  M 210.81 117.78
  Q 212.05 117.79 212.35 118.79
  A 0.61 0.61 0.0 0 1 211.94 119.55
  Q 211.92 119.56 210.80 119.56
  Q 209.69 119.55 209.67 119.55
  A 0.61 0.61 0.0 0 1 209.26 118.78
  Q 209.57 117.78 210.81 117.78
  Z"
/>
<ellipse fill="#ffffff" cx="0.00" cy="0.00" transform="translate(106.78,120.14) rotate(-90.2)" rx="2.29" ry="1.67"/>
<ellipse fill="#ffffff" cx="0.00" cy="0.00" transform="translate(115.12,120.16) rotate(-91.4)" rx="2.27" ry="1.72"/>
<rect fill="#ffffff" x="-1.61" y="-2.14" transform="translate(140.00,120.13) rotate(-0.3)" width="3.22" height="4.28" rx="1.30"/>
<ellipse fill="#ffffff" cx="0.00" cy="0.00" transform="translate(182.83,120.17) rotate(-91.7)" rx="2.27" ry="1.75"/>
<rect fill="#ffffff" x="-1.50" y="-0.99" transform="translate(60.78,121.33) rotate(-28.7)" width="3.00" height="1.98" rx="0.91"/>
</svg>
